<?xml version="1.0" encoding="utf-8"?>
<svg xmlns="http://www.w3.org/2000/svg" viewBox="34.366 10.351 428.336 478.526" width="428.336px" height="478.526px"><path d="M 220.692 18.388 C 239.253 7.672 257.815 7.672 276.376 18.388 L 434.86 109.89 C 453.421 120.606 462.702 136.68 462.702 158.113 L 462.702 341.115 C 462.702 362.548 453.421 378.622 434.86 389.338 L 276.376 480.84 C 257.815 491.556 239.253 491.556 220.692 480.84 L 62.208 389.339 C 43.647 378.622 34.366 362.548 34.366 341.115 L 34.366 158.113 C 34.366 136.68 43.647 120.606 62.208 109.889 Z M 158.284 402.19 L 172.703 402.19 L 172.703 402.574 L 336.001 402.574 L 336.001 400.841 L 338.342 398.625 L 368.152 343.181 L 336.001 343.181 L 336.001 342.714 L 218.142 342.714 L 218.142 90.558 L 158.284 90.558 Z" style="paint-order: fill; stroke: rgba(0, 0, 0, 0); fill: rgb(138, 174, 68); fill-rule: nonzero;" id="object-0" transform="matrix(0.9999999999999999, 0, 0, 0.9999999999999999, -5.684341886080802e-14, 0)"/></svg>